<svg width="21" height="20" viewBox="0 0 21 20" fill="none" xmlns="http://www.w3.org/2000/svg">
<path d="M10.4707 0.499571C4.94577 0.516585 0.484226 4.89202 0.500792 10.2714C0.514048 14.576 3.39027 18.2176 7.36672 19.4924C7.867 19.5826 8.0494 19.2805 8.04861 19.0219C8.04789 18.7906 8.03767 18.1777 8.03101 17.3657C5.25116 17.9616 4.65867 16.0692 4.65867 16.0692C4.20021 14.9463 3.54178 14.6477 3.54178 14.6477C2.63409 14.0466 3.60996 14.056 3.60996 14.056C4.61433 14.1206 5.14471 15.055 5.14471 15.055C6.04096 16.5416 7.48879 16.1068 8.05969 15.8564C8.14775 15.2258 8.40393 14.7963 8.68901 14.5517C6.46744 14.3148 4.1307 13.4844 4.11921 9.75221C4.11594 8.68906 4.50076 7.81884 5.14032 7.13535C5.02707 6.88953 4.68652 5.90011 5.21988 4.55692C5.21988 4.55692 6.05658 4.2933 7.97295 5.54717C8.77228 5.32827 9.62194 5.21827 10.4719 5.21069C11.3219 5.21303 12.1723 5.3178 12.9729 5.53177C14.869 4.26616 15.7073 4.52462 15.7073 4.52462C16.249 5.8645 15.9145 6.856 15.8153 7.10248C16.4549 7.78202 16.845 8.64986 16.8483 9.71301C16.8598 13.4551 14.5249 14.2859 12.3006 14.5323C12.6515 14.8237 12.9784 15.4199 12.9812 16.3327C12.9852 17.6363 12.9759 18.6838 12.9769 19.0001C12.9777 19.2554 13.1536 19.5597 13.6658 19.4606C17.6627 18.1695 20.5139 14.5078 20.5007 10.2098C20.4841 4.83043 15.9932 0.482565 10.4707 0.499571Z" fill="#212121"/>
</svg>
